<mxfile host="app.diagrams.net" modified="2023-09-18T10:47:25.295Z" agent="Mozilla/5.0 (Windows NT 10.0; Win64; x64) AppleWebKit/537.36 (KHTML, like Gecko) Chrome/117.0.0.0 Safari/537.36 Edg/117.0.2045.31" etag="zDhx3tsk3d933zwI-NI7" version="21.7.5" type="device">
  <diagram name="第 1 页" id="doLuzYWz9Yg-y-m_CZKs">
    <mxGraphModel dx="1672" dy="2387" grid="1" gridSize="10" guides="1" tooltips="1" connect="1" arrows="1" fold="1" page="1" pageScale="1" pageWidth="827" pageHeight="1169" math="0" shadow="0">
      <root>
        <mxCell id="0" />
        <mxCell id="1" parent="0" />
        <mxCell id="7KZXkn5E7-hq3waVyWaM-1" value="" style="group" vertex="1" connectable="0" parent="1">
          <mxGeometry x="266" y="-761" width="1151" height="690" as="geometry" />
        </mxCell>
        <mxCell id="7KZXkn5E7-hq3waVyWaM-2" style="edgeStyle=orthogonalEdgeStyle;rounded=0;orthogonalLoop=1;jettySize=auto;html=1;entryX=0;entryY=0.5;entryDx=0;entryDy=0;strokeWidth=2;endArrow=none;endFill=0;strokeColor=#F19C99;exitX=0.5;exitY=1;exitDx=0;exitDy=0;" edge="1" parent="7KZXkn5E7-hq3waVyWaM-1" source="7KZXkn5E7-hq3waVyWaM-15" target="7KZXkn5E7-hq3waVyWaM-25">
          <mxGeometry relative="1" as="geometry">
            <mxPoint x="656" y="339" as="sourcePoint" />
            <mxPoint x="811" y="175" as="targetPoint" />
          </mxGeometry>
        </mxCell>
        <mxCell id="7KZXkn5E7-hq3waVyWaM-3" style="edgeStyle=orthogonalEdgeStyle;rounded=0;orthogonalLoop=1;jettySize=auto;html=1;entryX=0;entryY=0.403;entryDx=0;entryDy=0;endArrow=none;endFill=0;strokeWidth=2;fillColor=#d5e8d4;strokeColor=#82b366;exitX=0.5;exitY=0;exitDx=0;exitDy=0;entryPerimeter=0;" edge="1" parent="7KZXkn5E7-hq3waVyWaM-1" source="7KZXkn5E7-hq3waVyWaM-9" target="7KZXkn5E7-hq3waVyWaM-14">
          <mxGeometry relative="1" as="geometry">
            <mxPoint x="151" y="320" as="sourcePoint" />
            <mxPoint x="471" y="78" as="targetPoint" />
          </mxGeometry>
        </mxCell>
        <mxCell id="7KZXkn5E7-hq3waVyWaM-4" style="edgeStyle=orthogonalEdgeStyle;rounded=0;orthogonalLoop=1;jettySize=auto;html=1;entryX=0;entryY=0.5;entryDx=0;entryDy=0;exitX=0.5;exitY=0;exitDx=0;exitDy=0;strokeWidth=2;endArrow=none;endFill=0;strokeColor=#F19C99;" edge="1" parent="7KZXkn5E7-hq3waVyWaM-1" source="7KZXkn5E7-hq3waVyWaM-20" target="7KZXkn5E7-hq3waVyWaM-22">
          <mxGeometry relative="1" as="geometry">
            <mxPoint x="765" y="340" as="sourcePoint" />
            <mxPoint x="811" y="246" as="targetPoint" />
          </mxGeometry>
        </mxCell>
        <mxCell id="7KZXkn5E7-hq3waVyWaM-5" style="edgeStyle=orthogonalEdgeStyle;rounded=0;orthogonalLoop=1;jettySize=auto;html=1;entryX=0;entryY=0.5;entryDx=0;entryDy=0;strokeWidth=2;endArrow=none;endFill=0;strokeColor=#F19C99;exitX=0.39;exitY=0.004;exitDx=0;exitDy=0;exitPerimeter=0;" edge="1" parent="7KZXkn5E7-hq3waVyWaM-1" source="7KZXkn5E7-hq3waVyWaM-17" target="7KZXkn5E7-hq3waVyWaM-23">
          <mxGeometry relative="1" as="geometry">
            <mxPoint x="651" y="280" as="sourcePoint" />
            <mxPoint x="811" y="95" as="targetPoint" />
          </mxGeometry>
        </mxCell>
        <mxCell id="7KZXkn5E7-hq3waVyWaM-6" style="edgeStyle=orthogonalEdgeStyle;rounded=0;orthogonalLoop=1;jettySize=auto;html=1;entryX=0;entryY=0.5;entryDx=0;entryDy=0;exitX=0.5;exitY=0;exitDx=0;exitDy=0;strokeWidth=2;endArrow=none;endFill=0;strokeColor=#666666;" edge="1" parent="7KZXkn5E7-hq3waVyWaM-1" source="7KZXkn5E7-hq3waVyWaM-13" target="7KZXkn5E7-hq3waVyWaM-24">
          <mxGeometry relative="1" as="geometry" />
        </mxCell>
        <mxCell id="7KZXkn5E7-hq3waVyWaM-7" style="edgeStyle=orthogonalEdgeStyle;rounded=0;orthogonalLoop=1;jettySize=auto;html=1;entryX=0;entryY=0.5;entryDx=0;entryDy=0;strokeWidth=2;endArrow=none;endFill=0;strokeColor=#A680B8;exitX=0.447;exitY=0.998;exitDx=0;exitDy=0;exitPerimeter=0;" edge="1" parent="7KZXkn5E7-hq3waVyWaM-1" source="7KZXkn5E7-hq3waVyWaM-12" target="7KZXkn5E7-hq3waVyWaM-27">
          <mxGeometry relative="1" as="geometry">
            <mxPoint x="418" y="421" as="sourcePoint" />
            <mxPoint x="811" y="575" as="targetPoint" />
          </mxGeometry>
        </mxCell>
        <mxCell id="7KZXkn5E7-hq3waVyWaM-8" style="edgeStyle=orthogonalEdgeStyle;rounded=0;orthogonalLoop=1;jettySize=auto;html=1;entryX=0;entryY=0.5;entryDx=0;entryDy=0;strokeWidth=2;endArrow=none;endFill=0;strokeColor=#A9C4EB;exitX=0.372;exitY=1.006;exitDx=0;exitDy=0;exitPerimeter=0;" edge="1" parent="7KZXkn5E7-hq3waVyWaM-1" source="7KZXkn5E7-hq3waVyWaM-11" target="7KZXkn5E7-hq3waVyWaM-26">
          <mxGeometry relative="1" as="geometry">
            <mxPoint x="226" y="421" as="sourcePoint" />
            <mxPoint x="811" y="685" as="targetPoint" />
          </mxGeometry>
        </mxCell>
        <mxCell id="7KZXkn5E7-hq3waVyWaM-9" value="&lt;font style=&quot;font-size: 28px;&quot;&gt;run&lt;/font&gt;" style="text;html=1;strokeColor=#82b366;fillColor=#d5e8d4;align=center;verticalAlign=middle;whiteSpace=wrap;rounded=0;" vertex="1" parent="7KZXkn5E7-hq3waVyWaM-1">
          <mxGeometry x="101" y="330" width="60" height="40" as="geometry" />
        </mxCell>
        <mxCell id="7KZXkn5E7-hq3waVyWaM-10" value="&lt;font style=&quot;font-size: 28px;&quot;&gt;docker&lt;/font&gt;" style="text;html=1;strokeColor=#d79b00;fillColor=#ffe6cc;align=center;verticalAlign=middle;whiteSpace=wrap;rounded=0;" vertex="1" parent="7KZXkn5E7-hq3waVyWaM-1">
          <mxGeometry y="330" width="100" height="40" as="geometry" />
        </mxCell>
        <mxCell id="7KZXkn5E7-hq3waVyWaM-11" value="&lt;font style=&quot;font-size: 28px;&quot;&gt;hcp4715/hddm:latest&lt;/font&gt;" style="text;html=1;strokeColor=#6c8ebf;fillColor=#7EA6E0;align=center;verticalAlign=middle;whiteSpace=wrap;rounded=0;fillStyle=auto;" vertex="1" parent="7KZXkn5E7-hq3waVyWaM-1">
          <mxGeometry x="271" y="371" width="275" height="40" as="geometry" />
        </mxCell>
        <mxCell id="7KZXkn5E7-hq3waVyWaM-12" value="&lt;font style=&quot;font-size: 28px;&quot;&gt;jupyter notebook&lt;/font&gt;" style="text;html=1;strokeColor=#9673a6;fillColor=#e1d5e7;align=center;verticalAlign=middle;whiteSpace=wrap;rounded=0;" vertex="1" parent="7KZXkn5E7-hq3waVyWaM-1">
          <mxGeometry x="547" y="371" width="222" height="40" as="geometry" />
        </mxCell>
        <mxCell id="7KZXkn5E7-hq3waVyWaM-13" value="&lt;font style=&quot;font-size: 28px;&quot;&gt;\&lt;/font&gt;" style="text;html=1;strokeColor=#314354;fillColor=#647687;align=center;verticalAlign=middle;whiteSpace=wrap;rounded=0;fontColor=#ffffff;" vertex="1" parent="7KZXkn5E7-hq3waVyWaM-1">
          <mxGeometry x="740" y="330" width="29" height="40" as="geometry" />
        </mxCell>
        <mxCell id="7KZXkn5E7-hq3waVyWaM-14" value="&lt;div&gt;&lt;/div&gt;&lt;font face=&quot;Times New Roman&quot; color=&quot;#38761d&quot;&gt;&lt;span style=&quot;font-size: 21.76px;&quot;&gt;Run a container&lt;br&gt;&lt;/span&gt;&lt;/font&gt;" style="text;whiteSpace=wrap;html=1;" vertex="1" parent="7KZXkn5E7-hq3waVyWaM-1">
          <mxGeometry x="801" width="160" height="40" as="geometry" />
        </mxCell>
        <mxCell id="7KZXkn5E7-hq3waVyWaM-15" value="&lt;font style=&quot;font-size: 28px;&quot;&gt;-it&amp;nbsp; --rm&lt;/font&gt;" style="text;html=1;strokeColor=#b85450;fillColor=#F19C99;align=center;verticalAlign=middle;whiteSpace=wrap;rounded=0;" vertex="1" parent="7KZXkn5E7-hq3waVyWaM-1">
          <mxGeometry x="162" y="371" width="108" height="40" as="geometry" />
        </mxCell>
        <mxCell id="7KZXkn5E7-hq3waVyWaM-16" value="" style="group" vertex="1" connectable="0" parent="7KZXkn5E7-hq3waVyWaM-1">
          <mxGeometry x="547" y="330" width="192" height="40" as="geometry" />
        </mxCell>
        <mxCell id="7KZXkn5E7-hq3waVyWaM-17" value="&lt;font style=&quot;font-size: 28px;&quot;&gt;8888:8888&lt;/font&gt;" style="text;html=1;strokeColor=#b85450;fillColor=#f8cecc;align=center;verticalAlign=middle;whiteSpace=wrap;rounded=0;" vertex="1" parent="7KZXkn5E7-hq3waVyWaM-16">
          <mxGeometry x="40" width="152" height="40" as="geometry" />
        </mxCell>
        <mxCell id="7KZXkn5E7-hq3waVyWaM-18" value="&lt;font style=&quot;font-size: 28px;&quot;&gt;-p&lt;/font&gt;" style="text;html=1;strokeColor=#B85450;fillColor=#F19C99;align=center;verticalAlign=middle;whiteSpace=wrap;rounded=0;" vertex="1" parent="7KZXkn5E7-hq3waVyWaM-16">
          <mxGeometry width="40" height="40" as="geometry" />
        </mxCell>
        <mxCell id="7KZXkn5E7-hq3waVyWaM-19" value="" style="group" vertex="1" connectable="0" parent="7KZXkn5E7-hq3waVyWaM-1">
          <mxGeometry x="162" y="330" width="384" height="40" as="geometry" />
        </mxCell>
        <mxCell id="7KZXkn5E7-hq3waVyWaM-20" value="&lt;font style=&quot;font-size: 28px;&quot;&gt;$(pwd):/home/jovyan/work&lt;/font&gt;" style="text;html=1;strokeColor=#B85450;fillColor=#F8CECC;align=center;verticalAlign=middle;whiteSpace=wrap;rounded=0;" vertex="1" parent="7KZXkn5E7-hq3waVyWaM-19">
          <mxGeometry x="39.389999999999986" width="344.61" height="40" as="geometry" />
        </mxCell>
        <mxCell id="7KZXkn5E7-hq3waVyWaM-21" value="&lt;font style=&quot;font-size: 28px;&quot;&gt;-v&lt;/font&gt;" style="text;html=1;strokeColor=#B85450;fillColor=#F19C99;align=center;verticalAlign=middle;whiteSpace=wrap;rounded=0;" vertex="1" parent="7KZXkn5E7-hq3waVyWaM-19">
          <mxGeometry width="39.39240506329114" height="40" as="geometry" />
        </mxCell>
        <mxCell id="7KZXkn5E7-hq3waVyWaM-22" value="&lt;div&gt;&lt;/div&gt;&lt;font face=&quot;Times New Roman&quot;&gt;&lt;span style=&quot;font-size: 21.76px;&quot;&gt;&lt;font color=&quot;#ea6b66&quot;&gt;Mount a volume, &lt;br&gt;localPath:containerPaht&lt;/font&gt;&lt;br&gt;&lt;/span&gt;&lt;/font&gt;" style="text;whiteSpace=wrap;html=1;" vertex="1" parent="7KZXkn5E7-hq3waVyWaM-1">
          <mxGeometry x="801" y="50" width="280" height="70" as="geometry" />
        </mxCell>
        <mxCell id="7KZXkn5E7-hq3waVyWaM-23" value="&lt;div&gt;&lt;/div&gt;&lt;font face=&quot;Times New Roman&quot;&gt;&lt;span style=&quot;font-size: 21.76px;&quot;&gt;&lt;font color=&quot;#ea6b66&quot;&gt;Map container port,&amp;nbsp;&lt;br&gt;hostPost:containerPort&lt;/font&gt;&lt;br&gt;&lt;/span&gt;&lt;/font&gt;" style="text;whiteSpace=wrap;html=1;" vertex="1" parent="7KZXkn5E7-hq3waVyWaM-1">
          <mxGeometry x="801" y="130" width="280" height="70" as="geometry" />
        </mxCell>
        <mxCell id="7KZXkn5E7-hq3waVyWaM-24" value="&lt;div&gt;&lt;/div&gt;&lt;span style=&quot;background-color: initial; font-size: 21.76px;&quot;&gt;&lt;font color=&quot;#999999&quot; face=&quot;Times New Roman&quot;&gt;Continue the command in a new line*&lt;/font&gt;&lt;/span&gt;&lt;font face=&quot;Times New Roman&quot; color=&quot;#38761d&quot;&gt;&lt;span style=&quot;font-size: 21.76px;&quot;&gt;&lt;br&gt;&lt;/span&gt;&lt;/font&gt;" style="text;whiteSpace=wrap;html=1;" vertex="1" parent="7KZXkn5E7-hq3waVyWaM-1">
          <mxGeometry x="801" y="216" width="350" height="40" as="geometry" />
        </mxCell>
        <mxCell id="7KZXkn5E7-hq3waVyWaM-25" value="&lt;div&gt;&lt;/div&gt;&lt;span style=&quot;background-color: initial; font-size: 21.76px;&quot;&gt;&lt;font color=&quot;#ea6b66&quot; face=&quot;Times New Roman&quot;&gt;Run container interactively &amp;amp; &lt;br&gt;clean up the container and &lt;br&gt;remove files when the container exits&lt;/font&gt;&lt;/span&gt;&lt;font face=&quot;Times New Roman&quot; color=&quot;#38761d&quot;&gt;&lt;span style=&quot;font-size: 21.76px;&quot;&gt;&lt;br&gt;&lt;/span&gt;&lt;/font&gt;" style="text;whiteSpace=wrap;html=1;" vertex="1" parent="7KZXkn5E7-hq3waVyWaM-1">
          <mxGeometry x="801" y="600" width="350" height="90" as="geometry" />
        </mxCell>
        <mxCell id="7KZXkn5E7-hq3waVyWaM-26" value="&lt;div&gt;&lt;/div&gt;&lt;span style=&quot;background-color: initial; font-size: 21.76px;&quot;&gt;&lt;font color=&quot;#0066cc&quot; face=&quot;Times New Roman&quot;&gt;The docker image (and its tag) to run the container&lt;/font&gt;&lt;/span&gt;&lt;font face=&quot;Times New Roman&quot; color=&quot;#38761d&quot;&gt;&lt;span style=&quot;font-size: 21.76px;&quot;&gt;&lt;br&gt;&lt;/span&gt;&lt;/font&gt;" style="text;whiteSpace=wrap;html=1;" vertex="1" parent="7KZXkn5E7-hq3waVyWaM-1">
          <mxGeometry x="801" y="520" width="340" height="70" as="geometry" />
        </mxCell>
        <mxCell id="7KZXkn5E7-hq3waVyWaM-27" value="&lt;div&gt;&lt;/div&gt;&lt;span style=&quot;background-color: initial; font-size: 21.76px;&quot;&gt;&lt;font color=&quot;#a680b8&quot; face=&quot;Times New Roman&quot;&gt;Open jupyter notebook&lt;/font&gt;&lt;/span&gt;&lt;font face=&quot;Times New Roman&quot; color=&quot;#38761d&quot;&gt;&lt;span style=&quot;font-size: 21.76px;&quot;&gt;&lt;br&gt;&lt;/span&gt;&lt;/font&gt;" style="text;whiteSpace=wrap;html=1;" vertex="1" parent="7KZXkn5E7-hq3waVyWaM-1">
          <mxGeometry x="801" y="465" width="350" height="40" as="geometry" />
        </mxCell>
        <mxCell id="7KZXkn5E7-hq3waVyWaM-28" value="" style="group" vertex="1" connectable="0" parent="1">
          <mxGeometry x="263" y="-1140" width="860" height="320" as="geometry" />
        </mxCell>
        <mxCell id="7KZXkn5E7-hq3waVyWaM-29" style="edgeStyle=orthogonalEdgeStyle;rounded=0;orthogonalLoop=1;jettySize=auto;html=1;entryX=-0.002;entryY=0.37;entryDx=0;entryDy=0;endArrow=none;endFill=0;strokeWidth=2;fillColor=#d5e8d4;strokeColor=#7EA6E0;exitX=0.5;exitY=0;exitDx=0;exitDy=0;entryPerimeter=0;" edge="1" parent="7KZXkn5E7-hq3waVyWaM-28" source="7KZXkn5E7-hq3waVyWaM-36" target="7KZXkn5E7-hq3waVyWaM-41">
          <mxGeometry relative="1" as="geometry">
            <mxPoint x="143" y="290" as="sourcePoint" />
            <mxPoint x="470" y="80" as="targetPoint" />
          </mxGeometry>
        </mxCell>
        <mxCell id="7KZXkn5E7-hq3waVyWaM-30" style="edgeStyle=orthogonalEdgeStyle;rounded=0;orthogonalLoop=1;jettySize=auto;html=1;entryX=-0.007;entryY=0.383;entryDx=0;entryDy=0;endArrow=none;endFill=0;strokeWidth=2;fillColor=#d5e8d4;strokeColor=#0066CC;exitX=0.5;exitY=0;exitDx=0;exitDy=0;entryPerimeter=0;" edge="1" parent="7KZXkn5E7-hq3waVyWaM-28" source="7KZXkn5E7-hq3waVyWaM-35" target="7KZXkn5E7-hq3waVyWaM-40">
          <mxGeometry relative="1" as="geometry">
            <mxPoint x="410" y="290" as="sourcePoint" />
            <mxPoint x="470" y="235" as="targetPoint" />
          </mxGeometry>
        </mxCell>
        <mxCell id="7KZXkn5E7-hq3waVyWaM-31" style="edgeStyle=orthogonalEdgeStyle;rounded=0;orthogonalLoop=1;jettySize=auto;html=1;entryX=-0.001;entryY=0.374;entryDx=0;entryDy=0;endArrow=none;endFill=0;strokeWidth=2;fillColor=#d5e8d4;strokeColor=#004C99;exitX=0.5;exitY=0;exitDx=0;exitDy=0;entryPerimeter=0;" edge="1" parent="7KZXkn5E7-hq3waVyWaM-28" source="7KZXkn5E7-hq3waVyWaM-34" target="7KZXkn5E7-hq3waVyWaM-42">
          <mxGeometry relative="1" as="geometry">
            <mxPoint x="420" y="300" as="sourcePoint" />
            <mxPoint x="480" y="245" as="targetPoint" />
          </mxGeometry>
        </mxCell>
        <mxCell id="7KZXkn5E7-hq3waVyWaM-32" value="&lt;font style=&quot;font-size: 28px;&quot;&gt;pull&lt;/font&gt;" style="text;html=1;strokeColor=#82b366;fillColor=#d5e8d4;align=center;verticalAlign=middle;whiteSpace=wrap;rounded=0;" vertex="1" parent="7KZXkn5E7-hq3waVyWaM-28">
          <mxGeometry x="101" y="280" width="66" height="40" as="geometry" />
        </mxCell>
        <mxCell id="7KZXkn5E7-hq3waVyWaM-33" value="&lt;font style=&quot;font-size: 28px;&quot;&gt;docker&lt;/font&gt;" style="text;html=1;strokeColor=#d79b00;fillColor=#ffe6cc;align=center;verticalAlign=middle;whiteSpace=wrap;rounded=0;" vertex="1" parent="7KZXkn5E7-hq3waVyWaM-28">
          <mxGeometry y="280" width="100" height="40" as="geometry" />
        </mxCell>
        <mxCell id="7KZXkn5E7-hq3waVyWaM-34" value="&lt;font style=&quot;font-size: 28px;&quot;&gt;hcp4715&lt;/font&gt;" style="text;html=1;strokeColor=#6c8ebf;fillColor=#7EA6E0;align=center;verticalAlign=middle;whiteSpace=wrap;rounded=0;fillStyle=auto;" vertex="1" parent="7KZXkn5E7-hq3waVyWaM-28">
          <mxGeometry x="168" y="280" width="112" height="40" as="geometry" />
        </mxCell>
        <mxCell id="7KZXkn5E7-hq3waVyWaM-35" value="&lt;font style=&quot;font-size: 28px;&quot;&gt;/hddm&lt;/font&gt;" style="text;html=1;strokeColor=#6c8ebf;fillColor=#A9C4EB;align=center;verticalAlign=middle;whiteSpace=wrap;rounded=0;" vertex="1" parent="7KZXkn5E7-hq3waVyWaM-28">
          <mxGeometry x="281" y="280" width="80" height="40" as="geometry" />
        </mxCell>
        <mxCell id="7KZXkn5E7-hq3waVyWaM-36" value="&lt;font style=&quot;font-size: 28px;&quot;&gt;:latest&lt;/font&gt;" style="text;html=1;strokeColor=#6c8ebf;fillColor=#D4E1F5;align=center;verticalAlign=middle;whiteSpace=wrap;rounded=0;" vertex="1" parent="7KZXkn5E7-hq3waVyWaM-28">
          <mxGeometry x="362" y="280" width="80" height="40" as="geometry" />
        </mxCell>
        <mxCell id="7KZXkn5E7-hq3waVyWaM-37" value="&lt;div&gt;&lt;span style=&quot;mso-spacerun:&#39;yes&#39;;font-size:16.32pt;font-family:Times New Roman;color:rgb(180,95,6);&quot;&gt;Using docker to execute this command&lt;/span&gt;&lt;/div&gt;" style="text;whiteSpace=wrap;html=1;" vertex="1" parent="7KZXkn5E7-hq3waVyWaM-28">
          <mxGeometry x="474" width="370" height="50" as="geometry" />
        </mxCell>
        <mxCell id="7KZXkn5E7-hq3waVyWaM-38" style="edgeStyle=orthogonalEdgeStyle;rounded=0;orthogonalLoop=1;jettySize=auto;html=1;exitX=0.5;exitY=0;exitDx=0;exitDy=0;entryX=-0.001;entryY=0.363;entryDx=0;entryDy=0;entryPerimeter=0;endArrow=none;endFill=0;strokeWidth=2;fillColor=#ffe6cc;strokeColor=#d79b00;" edge="1" parent="7KZXkn5E7-hq3waVyWaM-28" source="7KZXkn5E7-hq3waVyWaM-33" target="7KZXkn5E7-hq3waVyWaM-37">
          <mxGeometry relative="1" as="geometry" />
        </mxCell>
        <mxCell id="7KZXkn5E7-hq3waVyWaM-39" value="&lt;div&gt;&lt;span style=&quot;mso-spacerun:&#39;yes&#39;;font-size:16.32pt;font-family:Times New Roman;color:rgb(56,118,29);&quot;&gt;Pull/download an image from docker hub&#xa;&lt;/span&gt;&lt;/div&gt;" style="text;whiteSpace=wrap;html=1;" vertex="1" parent="7KZXkn5E7-hq3waVyWaM-28">
          <mxGeometry x="474" y="50" width="400" height="50" as="geometry" />
        </mxCell>
        <mxCell id="7KZXkn5E7-hq3waVyWaM-40" value="&lt;div&gt;&lt;/div&gt;&lt;font face=&quot;Times New Roman&quot; color=&quot;#1155cc&quot;&gt;&lt;span style=&quot;font-size: 21.76px;&quot;&gt;Image&#39;s name&lt;br&gt;&lt;/span&gt;&lt;/font&gt;" style="text;whiteSpace=wrap;html=1;" vertex="1" parent="7KZXkn5E7-hq3waVyWaM-28">
          <mxGeometry x="474" y="150" width="140" height="50" as="geometry" />
        </mxCell>
        <mxCell id="7KZXkn5E7-hq3waVyWaM-41" value="&lt;div&gt;&lt;/div&gt;&lt;font face=&quot;Times New Roman&quot; color=&quot;#3c78d8&quot;&gt;&lt;span style=&quot;font-size: 21.76px;&quot;&gt;Handle of a tag of the image&lt;br&gt;&lt;/span&gt;&lt;/font&gt;" style="text;whiteSpace=wrap;html=1;" vertex="1" parent="7KZXkn5E7-hq3waVyWaM-28">
          <mxGeometry x="474" y="200" width="270" height="50" as="geometry" />
        </mxCell>
        <mxCell id="7KZXkn5E7-hq3waVyWaM-42" value="&lt;div&gt;&lt;/div&gt;&lt;font face=&quot;Times New Roman&quot; color=&quot;#0b5394&quot;&gt;&lt;span style=&quot;font-size: 21.76px;&quot;&gt;Docker hub account that maintain the image&lt;/span&gt;&lt;/font&gt;" style="text;whiteSpace=wrap;html=1;" vertex="1" parent="7KZXkn5E7-hq3waVyWaM-28">
          <mxGeometry x="474" y="100" width="390" height="50" as="geometry" />
        </mxCell>
        <mxCell id="7KZXkn5E7-hq3waVyWaM-43" style="edgeStyle=orthogonalEdgeStyle;rounded=0;orthogonalLoop=1;jettySize=auto;html=1;entryX=0;entryY=0.403;entryDx=0;entryDy=0;endArrow=none;endFill=0;strokeWidth=2;fillColor=#d5e8d4;strokeColor=#82b366;exitX=0.5;exitY=0;exitDx=0;exitDy=0;entryPerimeter=0;" edge="1" parent="7KZXkn5E7-hq3waVyWaM-28" source="7KZXkn5E7-hq3waVyWaM-32" target="7KZXkn5E7-hq3waVyWaM-39">
          <mxGeometry relative="1" as="geometry">
            <mxPoint x="150" y="270" as="sourcePoint" />
            <mxPoint x="470" y="28" as="targetPoint" />
          </mxGeometry>
        </mxCell>
        <mxCell id="7KZXkn5E7-hq3waVyWaM-44" value="&lt;font style=&quot;font-size: 40px;&quot;&gt;A&lt;/font&gt;" style="text;html=1;strokeColor=none;fillColor=none;align=center;verticalAlign=middle;whiteSpace=wrap;rounded=0;" vertex="1" parent="1">
          <mxGeometry x="199" y="-1160" width="60" height="30" as="geometry" />
        </mxCell>
        <mxCell id="7KZXkn5E7-hq3waVyWaM-45" value="&lt;font style=&quot;font-size: 40px;&quot;&gt;B&lt;/font&gt;" style="text;html=1;strokeColor=none;fillColor=none;align=center;verticalAlign=middle;whiteSpace=wrap;rounded=0;" vertex="1" parent="1">
          <mxGeometry x="199" y="-794" width="60" height="30" as="geometry" />
        </mxCell>
      </root>
    </mxGraphModel>
  </diagram>
</mxfile>
